<svg preserveAspectRatio="none" width="100%" height="100%" overflow="visible" style="display: block;" viewBox="0 0 78 76" fill="none" xmlns="http://www.w3.org/2000/svg">
<g id="Frame" clip-path="url(#clip0_2087_136)">
<g id="Group">
<path id="Vector" d="M32.7174 76H16.9441C14.2217 76 12.0085 73.7983 12.0085 71.09V54.6287C11.4512 54.4772 10.7375 54.3096 10.1561 54.178C6.53159 53.3404 2.01694 52.2954 0.485324 48.925C-0.0439248 47.7682 -0.404776 45.8896 0.866222 43.5203C3.50445 38.6103 6.71602 36.1891 8.63254 34.7413C8.92523 34.5219 9.26203 34.2666 9.5066 34.0672C9.89151 15.2168 25.1034 0 43.7514 0C62.6359 0 78.0002 15.6116 78.0002 34.7971C78.0002 44.7289 73.8744 54.0863 66.6294 60.6915V72.0752C66.6294 73.7265 65.2822 75.0667 63.6223 75.0667C61.9623 75.0667 60.6152 73.7265 60.6152 72.0752V57.9513L61.6817 57.0538C68.2291 51.5535 71.986 43.4405 71.986 34.7971C71.986 18.9103 59.3201 5.983 43.7514 5.983C28.1827 5.983 15.5128 18.9103 15.5128 34.7971C15.5128 37.0587 13.8609 38.3031 12.2651 39.5077C10.5451 40.804 8.18749 42.583 6.17074 46.3363C6.12663 46.4161 6.09456 46.4839 6.0705 46.5397C6.95659 47.2896 10.116 48.0235 11.5153 48.3466C13.0871 48.7096 14.4422 49.0247 15.4566 49.5193L15.5288 49.5512C17.1847 50.3489 18.0227 51.5375 18.0227 53.0851V70.013H32.7174C34.3773 70.013 35.7245 71.3532 35.7245 73.0045C35.7245 74.6558 34.3813 76 32.7174 76Z" fill="var(--fill-0, #F96D01)"/>
</g>
<path id="Vector_2" d="M32.3122 35.0604C34.531 35.0604 36.3297 33.271 36.3297 31.0637C36.3297 28.8564 34.531 27.0671 32.3122 27.0671C30.0934 27.0671 28.2947 28.8564 28.2947 31.0637C28.2947 33.271 30.0934 35.0604 32.3122 35.0604Z" fill="var(--fill-0, #F96D01)"/>
<path id="Vector_3" d="M51.0043 21.128C53.2231 21.128 55.0218 19.3386 55.0218 17.1313C55.0218 14.924 53.2231 13.1347 51.0043 13.1347C48.7855 13.1347 46.9868 14.924 46.9868 17.1313C46.9868 19.3386 48.7855 21.128 51.0043 21.128Z" fill="var(--fill-0, #F96D01)"/>
<path id="Vector_4" d="M60.9357 31.2631C63.1545 31.2631 64.9532 29.4738 64.9532 27.2665C64.9532 25.0592 63.1545 23.2699 60.9357 23.2699C58.717 23.2699 56.9183 25.0592 56.9183 27.2665C56.9183 29.4738 58.717 31.2631 60.9357 31.2631Z" fill="var(--fill-0, #F96D01)"/>
<path id="Vector_5" d="M48.6067 41.0114C50.8255 41.0114 52.6241 39.2221 52.6241 37.0148C52.6241 34.8075 50.8255 33.0182 48.6067 33.0182C46.3879 33.0182 44.5892 34.8075 44.5892 37.0148C44.5892 39.2221 46.3879 41.0114 48.6067 41.0114Z" fill="var(--fill-0, #F96D01)"/>
<path id="Vector_6" d="M36.5502 18.6949C38.769 18.6949 40.5677 16.9055 40.5677 14.6982C40.5677 12.4909 38.769 10.7016 36.5502 10.7016C34.3314 10.7016 32.5327 12.4909 32.5327 14.6982C32.5327 16.9055 34.3314 18.6949 36.5502 18.6949Z" fill="var(--fill-0, #F96D01)"/>
<path id="Vector_7" d="M43.3663 30.4335C45.5851 30.4335 47.3838 28.6441 47.3838 26.4369C47.3838 24.2296 45.5851 22.4402 43.3663 22.4402C41.1475 22.4402 39.3488 24.2296 39.3488 26.4369C39.3488 28.6441 41.1475 30.4335 43.3663 30.4335Z" fill="var(--fill-0, #F96D01)"/>
<path id="Vector_8" d="M32.8936 31.4067L43.0014 27.0671" stroke="var(--stroke-0, #F96D01)" stroke-width="2" stroke-miterlimit="10" stroke-linecap="round"/>
<path id="Vector_9" d="M37.6488 16.5849L47.909 34.2666" stroke="var(--stroke-0, #F96D01)" stroke-width="2" stroke-miterlimit="10" stroke-linecap="round"/>
<path id="Vector_10" d="M52.2392 17.8453L59.9334 24.8773" stroke="var(--stroke-0, #F96D01)" stroke-width="2" stroke-miterlimit="10" stroke-linecap="round"/>
<path id="Vector_11" d="M43.3663 26.7161L50.884 17.3108" stroke="var(--stroke-0, #F96D01)" stroke-width="2" stroke-miterlimit="10" stroke-linecap="round"/>
</g>
<defs>
<clipPath id="clip0_2087_136">
<rect width="78" height="76" fill="white"/>
</clipPath>
</defs>
</svg>
