<svg preserveAspectRatio="none" width="100%" height="100%" overflow="visible" style="display: block;" viewBox="0 0 88 81" fill="none" xmlns="http://www.w3.org/2000/svg">
<g id="Frame" clip-path="url(#clip0_2087_107)">
<g id="Group">
<path id="Vector" d="M27.1181 38.9155L32.6037 19.3172C33.0624 17.6881 33.6649 16.3937 34.4158 15.4341C35.4275 14.1219 36.7899 13.4658 38.5121 13.4658C40.2207 13.4658 41.5382 13.9791 42.4645 15.0012C43.1929 15.8179 43.7459 16.8624 44.1192 18.1389L50.0904 38.9289H46.201L43.9033 31.1628H33.3502L30.8951 38.9289L27.1181 38.9155ZM34.164 27.5118H42.9141L40.6164 19.3975C40.4815 18.9244 40.2252 18.4558 39.852 17.9916C39.5193 17.5854 39.0966 17.3801 38.584 17.3801C38.022 17.3801 37.5408 17.639 37.1452 18.1567C36.8439 18.5316 36.6281 18.9467 36.5022 19.3975L34.164 27.5118Z" fill="var(--fill-0, #F96D01)"/>
</g>
<g id="Group_2">
<path id="Vector_2" d="M52.7433 13.68H56.6193V38.9289H52.7433V13.68Z" fill="var(--fill-0, #F96D01)"/>
</g>
<g id="Group_3">
<path id="Vector_3" d="M79.8075 62.3256H8.18803C3.6736 62.3256 0 58.679 0 54.1979C0 52.3501 1.51081 50.8504 3.37234 50.8504C5.23387 50.8504 6.74467 52.3501 6.74467 54.1979C6.74467 54.9879 7.39216 55.6306 8.18803 55.6306H79.8075C80.6033 55.6306 81.2508 54.9879 81.2508 54.1979C81.2508 52.3501 82.7616 50.8504 84.6232 50.8504C86.4847 50.8504 87.9955 52.3501 87.9955 54.1979C88 58.679 84.3219 62.3256 79.8075 62.3256Z" fill="var(--fill-0, #F96D01)"/>
</g>
<g id="Group_4">
<path id="Vector_4" d="M84.6277 46.8557C82.7661 46.8557 81.2553 45.3561 81.2553 43.5083V8.12767C81.2553 7.33767 80.6078 6.69495 79.812 6.69495H8.18803C7.39216 6.69495 6.74467 7.33767 6.74467 8.12767V43.5038C6.74467 45.3516 5.23387 46.8513 3.37234 46.8513C1.51081 46.8513 0 45.3561 0 43.5083V8.12767C0 3.64652 3.6736 0 8.18803 0H79.8075C84.3219 0 87.9955 3.64652 87.9955 8.12767V43.5038C88 45.3561 86.4892 46.8557 84.6277 46.8557Z" fill="var(--fill-0, #F96D01)"/>
</g>
<g id="Group_5">
<path id="Vector_5" d="M76.8578 51.7877H11.1422C9.28067 51.7877 7.76986 50.288 7.76986 48.4402C7.76986 46.5924 9.28067 45.0927 11.1422 45.0927H76.8578C78.7193 45.0927 80.2301 46.5924 80.2301 48.4402C80.2301 50.288 78.7193 51.7877 76.8578 51.7877Z" fill="var(--fill-0, #F96D01)"/>
</g>
<path id="Vector_6" d="M63.373 81H24.6226C23.8087 81 23.1477 80.3439 23.1477 79.536V73.1758C23.1477 72.368 23.8087 71.7119 24.6226 71.7119H63.373C64.1868 71.7119 64.8478 72.368 64.8478 73.1758V79.536C64.8478 80.3439 64.1868 81 63.373 81Z" fill="var(--fill-0, #F96D01)"/>
<g id="Group_6">
<path id="Vector_7" d="M37.4914 74.5505C35.6299 74.5505 34.1191 73.0509 34.1191 71.203V62.7272C34.1191 60.8794 35.6299 59.3798 37.4914 59.3798C39.3529 59.3798 40.8637 60.8794 40.8637 62.7272V71.203C40.8637 73.0553 39.3529 74.5505 37.4914 74.5505Z" fill="var(--fill-0, #F96D01)"/>
</g>
<g id="Group_7">
<path id="Vector_8" d="M50.3018 74.5505C48.4402 74.5505 46.9294 73.0509 46.9294 71.203V62.7272C46.9294 60.8794 48.4402 59.3798 50.3018 59.3798C52.1633 59.3798 53.6741 60.8794 53.6741 62.7272V71.203C53.6741 73.0553 52.1633 74.5505 50.3018 74.5505Z" fill="var(--fill-0, #F96D01)"/>
</g>
</g>
<defs>
<clipPath id="clip0_2087_107">
<rect width="88" height="81" fill="white"/>
</clipPath>
</defs>
</svg>
