<svg preserveAspectRatio="none" width="100%" height="100%" overflow="visible" style="display: block;" viewBox="0 0 72.9897 18.0345" fill="none" xmlns="http://www.w3.org/2000/svg">
<g id="Group">
<path id="Vector" d="M9.00982 1.12816H6.2122L5.98084 0.00146166H3.21035L3.4417 1.12816H0.41986V3.29534H9.00982V1.12816Z" fill="var(--fill-0, #121212)"/>
<path id="Vector_2" d="M8.83988 11.3561V9.19041H6.00655V7.98772H9.24118V5.82201H7.74882L8.21723 3.93541H5.82376L5.35534 5.82201H4.02722L3.5588 3.93541H1.16532L1.63374 5.82201H0.0871151V7.98772H3.35173V9.19041H0.332747V11.3561H3.35173V15.8629H3.06325L2.10501 17.998H3.35173H4.0215H5.66238C5.85232 17.998 6.00798 17.8211 6.00798 17.6063V11.3561H8.83988Z" fill="var(--fill-0, #121212)"/>
<path id="Vector_3" d="M12.4658 3.03376L16.9714 2.44483V0.156364L12.4615 0.745287V0.74821L9.75529 0.989332L9.69102 12.664C9.68959 12.8336 9.67674 13.0031 9.65247 13.1697L9.08408 17.0145L8.26293 12.1949H6.24219L7.06619 17.0276H9.08265L8.93842 17.9994H11.5947L12.3273 13.1697C12.353 13.0045 12.3658 12.8365 12.3673 12.667L12.4172 7.656H13.4183V17.998H15.9632V7.656H17.0086V5.49028H12.4387L12.4658 3.03376Z" fill="var(--fill-0, #121212)"/>
<path id="Vector_4" d="M0.824009 12.1935L3.5614e-07 17.0262H2.02075L2.84333 12.1935H0.824009Z" fill="var(--fill-0, #121212)"/>
<path id="Vector_5" d="M61.5992 0.00146166H58.556L55.9012 8.07541H57.7748V17.9044H60.5496V4.72892H60.0441L61.5992 0.00146166Z" fill="var(--fill-0, #121212)"/>
<path id="Vector_6" d="M32.9846 13.1667L33.2588 14.7742L31.9192 14.9131V11.948H35.3352V10.5246V9.59228V4.72892V2.46237V2.37177H31.9192V0.00146166H29.3315V2.37323H25.9141V2.46383V4.73038V9.59374V10.5261V11.9494H29.3315V15.1819L25.8213 15.5473V17.903L33.6544 17.0875L33.81 17.9965H35.8308L35.0068 13.1638H32.9846V13.1667ZM33.0489 4.72892V9.59228H31.9192V4.72892H33.0489ZM28.1991 9.59228V4.72892H29.3301V9.59228H28.1991Z" fill="var(--fill-0, #121212)"/>
<path id="Vector_7" d="M48.1623 6.78942H45.5075L46.59 13.1667H49.2434L48.1623 6.78942Z" fill="var(--fill-0, #121212)"/>
<path id="Vector_8" d="M71.9572 3.54961L71.1546 0.53193H68.5012L69.3038 3.54961H71.9572Z" fill="var(--fill-0, #121212)"/>
<path id="Vector_9" d="M23.235 9.66681V0.00146166H20.7859V10.2864C20.7844 10.4559 18.5023 18.0345 18.5023 18.0345H20.9815C20.9815 18.0345 21.6413 15.7986 22.2082 13.8448L23.3507 18.0345H25.53L23.235 9.66681Z" fill="var(--fill-0, #121212)"/>
<path id="Vector_10" d="M20.5859 9.0209L20.2789 2.25924H18.6466L18.9536 9.0209H20.5859Z" fill="var(--fill-0, #121212)"/>
<path id="Vector_11" d="M23.4207 9.0209H25.053L25.4529 2.25924H23.8205L23.4207 9.0209Z" fill="var(--fill-0, #121212)"/>
<path id="Vector_12" d="M37.5359 3.45463V7.79921V10.1228V14.6763V16.9999H40.1265H42.0316H44.6221V14.6763V10.1228V7.79921V3.45463V2.66404V1.13108H37.5359V3.45463ZM42.0316 14.6748H40.1265V10.1213H42.0316V14.6748ZM42.0316 7.79775H40.1265V3.45463H42.0316V7.79775Z" fill="var(--fill-0, #121212)"/>
<path id="Vector_13" d="M53.0778 0.00146166H50.2374V2.37323H45.1105V4.8999H50.2374V14.8867C50.2374 15.1352 50.0817 15.3383 49.8918 15.3383H48.5351L47.5768 17.9059H50.2359H50.6129H52.7294C52.9207 17.9059 53.075 17.7042 53.075 17.4543V4.8999H54.3917V2.37177H53.075V0.00146166H53.0778Z" fill="var(--fill-0, #121212)"/>
<path id="Vector_14" d="M69.5023 14.8751C68.7083 13.3611 68.1527 10.1169 67.7843 7.04369L72.4927 6.84057V4.24083L67.5087 4.45565C67.2716 1.93921 67.1717 0 67.1717 0H64.1541C64.2426 1.6674 64.3569 3.19158 64.4883 4.58571L61.1979 4.72746V7.3272L64.7682 7.17375C65.5551 13.5365 66.6904 16.5045 67.1502 17.4996C67.2659 17.7481 67.4915 17.903 67.74 17.903H72.1585L72.9897 15.2462H70.075C69.8408 15.2462 69.6237 15.1059 69.5023 14.8751Z" fill="var(--fill-0, #121212)"/>
</g>
</svg>
