<svg preserveAspectRatio="none" width="100%" height="100%" overflow="visible" style="display: block;" viewBox="0 0 29.3544 30.0015" fill="none" xmlns="http://www.w3.org/2000/svg">
<g id="Group">
<path id="Vector" d="M29.3544 0H26.3797V2.95046H29.3544V0Z" fill="var(--fill-0, #121212)"/>
<path id="Vector_2" d="M19.5891 7.63846V3.31434H12.9999C5.83232 3.31434 0 9.28248 0 16.6184V30.0015H4.22572V16.6184C4.22572 11.6674 8.16154 7.63992 12.9999 7.63992H19.5891V7.63846Z" fill="var(--fill-0, #121212)"/>
<path id="Vector_3" d="M8.17296 18.3428V22.1116H12.3487H12.4772C14.7407 22.1116 16.5744 20.2338 16.5744 17.919H12.4244C12.63 16.2005 14.0624 14.8663 15.7961 14.8663H21.8512V16.6974C21.8512 21.6484 17.9154 25.6759 13.077 25.6759H8.15725V30H13.0785C20.2475 30 26.0784 24.0319 26.0784 16.6974V10.5407H15.7961C11.5932 10.5407 8.17296 14.0406 8.17296 18.3428Z" fill="var(--fill-0, #F96D01)"/>
<path id="Vector_4" d="M26.0355 3.31726H21.6841V7.63408H26.0355V3.31726Z" fill="var(--fill-0, #121212)"/>
</g>
</svg>
