<svg preserveAspectRatio="none" width="100%" height="100%" overflow="visible" style="display: block;" viewBox="0 0 34.2299 3.77466" fill="none" xmlns="http://www.w3.org/2000/svg">
<g id="Group">
<path id="Vector" d="M3.6859 0H2.70337L1.87937 1.14862L1.0625 0H0.0556954L1.38953 1.83545L0 3.77466H0.951107L1.87365 2.50183L2.79763 3.77466H3.74731L2.36206 1.82668L3.6859 0Z" fill="var(--fill-0, #121212)"/>
<path id="Vector_2" d="M5.96085 1.05775e-07H5.14684V3.77466H5.96085V1.05775e-07Z" fill="var(--fill-0, #121212)"/>
<path id="Vector_3" d="M20.663 1.33567H18.7137V0.033611H17.8997V3.74836H18.7137V2.16864H20.663V3.74836H21.477V0.033611H20.663V1.33567Z" fill="var(--fill-0, #121212)"/>
<path id="Vector_4" d="M34.2299 0.033611H33.4159V3.74836H34.2299V0.033611Z" fill="var(--fill-0, #121212)"/>
<path id="Vector_5" d="M26.1098 2.00935C26.1098 2.55005 25.6628 2.99138 25.1115 2.99138C24.5617 2.99138 24.1147 2.55151 24.1147 2.00935V0.0219205H23.3179V2.00935C23.3179 2.98261 24.1219 3.77466 25.1115 3.77466C26.1012 3.77466 26.9052 2.98261 26.9052 2.00935V0.0219205H26.1083V2.00935H26.1098Z" fill="var(--fill-0, #121212)"/>
<path id="Vector_6" d="M10.6179 2.50329L8.77419 1.05775e-07H7.88163V3.77466H8.69707V1.27868L10.5336 3.77466H11.4319V0.016075H10.6179V2.50329Z" fill="var(--fill-0, #121212)"/>
<path id="Vector_7" d="M13.1627 0.765746H15.3306L13.1627 2.80725V3.77466H16.246V3.00745H14.101L16.2588 0.974719V1.05775e-07H13.1627V0.765746Z" fill="var(--fill-0, #121212)"/>
<path id="Vector_8" d="M29.6057 0.0219205L28.1177 3.74836H28.9888L30.037 1.07117L31.2538 3.74836H32.1435L30.4326 0.0219205H29.6057Z" fill="var(--fill-0, #F96D01)"/>
</g>
</svg>
